<svg width="220" height="31" viewBox="0 0 220 31" fill="none" xmlns="http://www.w3.org/2000/svg">
<g clip-path="url(#clip0_1979_146685)">
<path d="M28.1973 23.9983V11.9991C28.1973 5.37221 33.5694 0 40.1964 0C46.8233 0 52.1955 5.37221 52.1955 11.9991V23.9983L28.1973 23.9983Z" fill="black"/>
<path d="M24.5978 23.9983H12.5987C5.97178 23.9983 0.599609 18.6261 0.599609 11.9992C0.599609 5.37224 5.97178 0 12.5987 0H24.5977L24.5978 23.9983Z" fill="black"/>
<path d="M71.0926 16.9306C70.9318 17.9045 70.6007 18.6915 70.1055 19.2915C69.6071 19.8949 68.9743 20.1966 68.2102 20.1966H67.1674C66.4985 20.1966 65.9181 19.9637 65.4328 19.5014C64.9475 19.0391 64.5704 18.4127 64.3048 17.6258C64.036 16.8388 63.9048 15.9698 63.9048 15.0189C63.9048 14.0713 64.036 13.2088 64.3048 12.4317C64.5704 11.6578 64.9509 11.0315 65.4493 10.5561C65.9477 10.0806 66.5445 9.84451 67.2397 9.84451H68.2791C69.0201 9.84451 69.6399 10.156 70.1383 10.7823C70.6367 11.4086 70.9318 12.2054 71.0237 13.1794H75.5062C75.4373 11.789 75.0897 10.5495 74.4634 9.46085C73.8372 8.37548 72.9911 7.52292 71.9286 6.90973C70.8629 6.29653 69.6695 5.98828 68.3511 5.98828H67.2396C65.6624 5.98828 64.2785 6.38835 63.0883 7.18843C61.8948 7.98523 60.9732 9.06736 60.3273 10.4347C59.678 11.8021 59.3535 13.3302 59.3535 15.0189C59.3535 16.688 59.6715 18.2095 60.3076 19.5867C60.9471 20.9672 61.8554 22.0526 63.0357 22.8527C64.2162 23.6528 65.5935 24.0528 67.1674 24.0528H68.2462C69.5875 24.0528 70.781 23.7446 71.8238 23.1314C72.8666 22.5182 73.7092 21.6656 74.3585 20.577C75.0078 19.4883 75.4011 18.2751 75.539 16.9307L71.0926 16.9306Z" fill="black"/>
<path d="M85.8963 6.26709C85.0634 6.26709 84.3453 6.47039 83.7419 6.8737C83.1386 7.28029 82.6762 7.85414 82.3516 8.59523V6.27692H77.8723L77.8691 23.7971H82.3516V14.0812C82.3516 13.386 82.4861 12.7269 82.7516 12.1039C83.0172 11.4776 83.3879 10.9726 83.8632 10.5922C84.3388 10.2086 84.8994 10.0184 85.5487 10.0184H88.0506V6.26709H85.8963Z" fill="black"/>
<path d="M101.825 6.27692L98.7951 15.3338C98.5394 16.1437 98.2738 17.0815 97.9951 18.1473H97.8574C97.6246 17.0815 97.382 16.1438 97.1293 15.3338L94.0373 6.26709H89.4531L95.0439 21.5838C95.1816 21.9805 95.2866 22.3281 95.3555 22.6265C95.4014 22.8134 95.4374 23.0102 95.4603 23.2167C95.4834 23.4266 95.4965 23.6332 95.4965 23.843C95.4965 24.3054 95.4145 24.8104 95.2538 25.3547C95.0898 25.8991 94.8242 26.368 94.4537 26.7614C94.0831 27.1549 93.6077 27.3517 93.0305 27.3517H91.1189V30.8603H93.5486C94.893 30.8603 96.0178 30.5062 96.9196 29.8012C97.8213 29.0929 98.5525 27.9878 99.1067 26.4827L106.399 6.27692H101.825Z" fill="black"/>
<path d="M138.127 10.0182V6.26685H133.733V1.71875H129.251V6.26685H125.988V10.0181H129.251V18.5962C129.251 20.3341 129.674 21.6327 130.52 22.4885C131.366 23.3444 132.576 23.7739 134.15 23.7739H138.354V20.0227H135.468C134.937 20.0227 134.514 19.8784 134.202 19.5865C133.888 19.298 133.733 18.8061 133.733 18.111V10.0182H138.127Z" fill="black"/>
<path d="M124.071 10.5561C123.435 9.17883 122.559 8.07381 121.448 7.23763C120.336 6.40473 119.097 5.98828 117.733 5.98828H116.69C115.949 5.98828 115.201 6.19816 114.45 6.61461C113.696 7.03106 113.089 7.53934 112.624 8.14267V6.28015L108.145 6.27688V30.8603H112.624V21.8985C113.089 22.5215 113.686 23.0396 114.414 23.4429C115.145 23.8495 115.857 24.0528 116.552 24.0528H117.628C119.064 24.0528 120.343 23.6528 121.464 22.8527C122.589 22.0526 123.464 20.9672 124.087 19.5867C124.714 18.2095 125.025 16.688 125.025 15.0189C125.025 13.422 124.707 11.9333 124.071 10.5561ZM120.008 17.6947C119.693 18.4816 119.27 19.0948 118.739 19.5343C118.205 19.9769 117.615 20.1966 116.969 20.1966H115.821C115.195 20.1966 114.611 19.9769 114.067 19.5343C113.522 19.0948 113.093 18.4816 112.781 17.6947C112.47 16.9077 112.312 16.0158 112.312 15.0189C112.312 14.0254 112.47 13.1335 112.781 12.3465C113.093 11.5595 113.522 10.943 114.067 10.5036C114.611 10.0642 115.195 9.84454 115.821 9.84454H116.969C117.615 9.84454 118.205 10.0642 118.739 10.5036C119.27 10.943 119.694 11.5595 120.008 12.3465C120.32 13.1335 120.474 14.0254 120.474 15.0189C120.474 16.0158 120.32 16.9077 120.008 17.6947Z" fill="black"/>
<path d="M155.636 10.3823C154.963 9.00502 154.039 7.92951 152.858 7.15237C151.678 6.37522 150.356 5.98828 148.897 5.98828H147.51C146.051 5.98828 144.729 6.37522 143.549 7.15237C142.369 7.92951 141.441 9.00505 140.772 10.3823C140.1 11.7595 139.762 13.3072 139.762 15.0189C139.762 16.7339 140.1 18.2783 140.772 19.6588C141.441 21.036 142.369 22.1116 143.549 22.8887C144.729 23.6626 146.061 24.0528 147.543 24.0528H148.933C150.393 24.0528 151.707 23.6626 152.875 22.8887C154.045 22.1116 154.963 21.036 155.636 19.6588C156.308 18.2783 156.646 16.7338 156.646 15.0189C156.646 13.3072 156.308 11.7595 155.636 10.3823ZM151.678 17.6422C151.376 18.4423 150.97 19.0653 150.461 19.5178C149.953 19.9703 149.386 20.1966 148.76 20.1966H147.684C147.058 20.1966 146.484 19.9768 145.963 19.5342C145.441 19.0948 145.031 18.475 144.73 17.6782C144.428 16.8781 144.277 15.9928 144.277 15.0189C144.277 14.0483 144.428 13.1629 144.73 12.3628C145.031 11.5627 145.441 10.943 145.963 10.5036C146.484 10.0642 147.058 9.84447 147.684 9.84447H148.724C149.35 9.84447 149.924 10.0707 150.445 10.5232C150.966 10.9725 151.376 11.5988 151.678 12.3989C151.976 13.1957 152.127 14.0712 152.127 15.0189C152.127 15.9698 151.976 16.8421 151.678 17.6422Z" fill="black"/>
<path d="M174.08 9.29031C173.572 8.27052 172.893 7.46386 172.05 6.87363C171.204 6.2834 170.283 5.98828 169.289 5.98828H167.83C166.994 5.98828 166.174 6.2375 165.361 6.73591C164.551 7.23436 163.928 7.85407 163.485 8.59515V6.27777H159.006V23.7972H163.485V14.4286C163.485 13.5957 163.626 12.8448 163.905 12.1726C164.18 11.5004 164.557 10.9692 165.033 10.5725C165.508 10.179 166.046 9.98222 166.646 9.98222H167.758C168.292 9.98222 168.755 10.133 169.148 10.4347C169.541 10.7364 169.843 11.1529 170.053 11.6841C170.26 12.2185 170.365 12.7957 170.365 13.422L170.364 23.7983L174.841 23.7981L174.844 12.694C174.844 11.4414 174.591 10.3069 174.08 9.29031Z" fill="black"/>
<path d="M192.946 10.3823C192.274 9.00502 191.346 7.92951 190.166 7.15237C188.985 6.37522 187.664 5.98828 186.208 5.98828H184.817C183.358 5.98828 182.037 6.37522 180.856 7.15237C179.676 7.92951 178.751 9.00505 178.079 10.3823C177.407 11.7595 177.072 13.3072 177.072 15.0189C177.072 16.7339 177.407 18.2783 178.079 19.6588C178.751 21.036 179.676 22.1116 180.856 22.8887C182.037 23.6626 183.368 24.0528 184.85 24.0528H186.241C187.7 24.0528 189.015 23.6626 190.182 22.8887C191.353 22.1116 192.274 21.036 192.946 19.6588C193.615 18.2783 193.953 16.7338 193.953 15.0189C193.953 13.3072 193.615 11.7595 192.946 10.3823ZM188.985 17.6422C188.683 18.4423 188.28 19.0653 187.769 19.5178C187.26 19.9703 186.693 20.1966 186.067 20.1966H184.991C184.365 20.1966 183.791 19.9768 183.273 19.5342C182.752 19.0948 182.338 18.475 182.037 17.6782C181.739 16.8781 181.588 15.9928 181.588 15.0189C181.588 14.0483 181.739 13.1629 182.037 12.3628C182.339 11.5627 182.752 10.943 183.273 10.5036C183.791 10.0642 184.365 9.84447 184.991 9.84447H186.034C186.657 9.84447 187.231 10.0707 187.752 10.5232C188.274 10.9725 188.684 11.5988 188.985 12.3989C189.287 13.1957 189.438 14.0712 189.438 15.0189C189.438 15.9698 189.287 16.8421 188.985 17.6422Z" fill="black"/>
<path d="M214.884 6.27734L212.631 14.8446C212.421 15.6807 212.224 16.6415 212.037 17.7302H211.899C211.762 16.6415 211.575 15.6807 211.345 14.8446L209.017 6.27791H204.813L202.485 14.8446C202.279 15.6807 202.069 16.6415 201.862 17.7302H201.721C201.56 16.6415 201.374 15.6807 201.167 14.8446L198.938 6.27791H194.387L199.324 23.7964H203.738L206.24 15.0544C206.469 14.2216 206.689 13.2837 206.899 12.241H207.004C207.187 13.3067 207.384 14.2543 207.594 15.0872L210.06 23.7964H214.434L219.4 6.27791L214.884 6.27734Z" fill="black"/>
</g>
<defs>
<clipPath id="clip0_1979_146685">
<rect width="218.799" height="30.86" fill="white" transform="translate(0.599609)"/>
</clipPath>
</defs>
</svg>
